<svg xmlns="http://www.w3.org/2000/svg" viewBox="0 0 480.001 480.001" style="enable-background:new 0 0 480.001 480.001" xml:space="preserve">
  <path style="fill:#5e2a41" d="M179.397 480a9.966 9.966 0 0 1-7.071-2.929c-3.905-3.906-3.905-10.237 0-14.143 73.495-73.494 65.913-144.856 57.886-220.409l-.311-2.929c-8.169-76.897-16.617-156.413 63.632-236.662 3.906-3.905 10.236-3.905 14.143 0 3.905 3.906 3.905 10.237 0 14.143-73.494 73.493-65.913 144.855-57.887 220.407l.311 2.929c8.17 76.899 16.618 156.415-63.632 236.665a9.971 9.971 0 0 1-7.071 2.928z"/>
  <path style="fill:#f2d59f" d="M432.072 181.792a9.966 9.966 0 0 1-7.071-2.929L301.137 55c-3.905-3.905-3.905-10.237 0-14.143 3.906-3.905 10.236-3.905 14.143 0L439.143 164.72c3.905 3.905 3.905 10.237 0 14.143a9.968 9.968 0 0 1-7.071 2.929z"/>
  <path style="fill:#ff7124" d="M396.687 205.375a9.966 9.966 0 0 1-7.071-2.929L277.977 90.807c-3.905-3.905-3.905-10.237 0-14.143 3.905-3.905 10.237-3.904 14.143 0l111.639 111.639c3.905 3.905 3.905 10.237 0 14.143a9.976 9.976 0 0 1-7.072 2.929z"/>
  <path style="fill:#8ecac1" d="M352.661 220.304a9.966 9.966 0 0 1-7.071-2.929l-82.964-82.964c-3.905-3.905-3.905-10.237 0-14.143 3.906-3.905 10.236-3.905 14.143 0l82.964 82.964c3.905 3.905 3.905 10.237 0 14.143a9.969 9.969 0 0 1-7.072 2.929z"/>
  <path style="fill:#f2d59f" d="M296.922 223.532a9.966 9.966 0 0 1-7.071-2.929l-31.336-31.336c-3.905-3.905-3.905-10.237 0-14.142 3.908-3.905 10.238-3.905 14.143.001l31.336 31.336c3.905 3.905 3.905 10.237 0 14.142a9.975 9.975 0 0 1-7.072 2.928z"/>
  <path style="fill:#ff7124" d="M171.793 442.073a9.966 9.966 0 0 1-7.071-2.929L40.857 315.278c-3.905-3.905-3.905-10.237 0-14.142 3.906-3.904 10.237-3.904 14.143 0l123.865 123.866c3.905 3.905 3.905 10.237-.001 14.142a9.972 9.972 0 0 1-7.071 2.929z"/>
  <path style="fill:#f2d59f" d="M195.372 406.685a9.97 9.97 0 0 1-7.071-2.929L76.244 291.7c-3.905-3.905-3.905-10.237 0-14.143 3.905-3.904 10.237-3.904 14.143 0l112.057 112.057c3.905 3.905 3.905 10.237 0 14.143a9.978 9.978 0 0 1-7.072 2.928z"/>
  <path style="fill:#8ecac1" d="M210.302 362.66a9.97 9.97 0 0 1-7.071-2.929l-82.963-82.963c-3.905-3.905-3.905-10.237 0-14.143 3.905-3.904 10.237-3.904 14.143 0l82.963 82.963c3.905 3.905 3.905 10.237 0 14.143a9.97 9.97 0 0 1-7.072 2.929z"/>
  <path style="fill:#ff7124" d="M213.533 306.924a9.966 9.966 0 0 1-7.071-2.929l-31.337-31.337c-3.905-3.905-3.905-10.237 0-14.143 3.905-3.905 10.237-3.905 14.143 0l31.337 31.337c3.905 3.905 3.905 10.237 0 14.143a9.97 9.97 0 0 1-7.072 2.929z"/>
  <path style="fill:#5e2a41" d="M10 310.604a9.966 9.966 0 0 1-7.071-2.929c-3.905-3.905-3.905-10.237 0-14.142 80.249-80.249 159.763-71.801 236.662-63.632l2.932.311c75.553 8.026 146.914 15.608 220.406-57.886 3.906-3.905 10.236-3.906 14.143-.001 3.905 3.905 3.905 10.237 0 14.142-55.675 55.676-111.012 68.659-165.353 68.661-23.983.001-47.763-2.527-71.31-5.028l-2.931-.311c-75.553-8.028-146.914-15.608-220.407 57.886A9.966 9.966 0 0 1 10 310.604z"/>
</svg>